<svg width="345" height="200" viewBox="0 0 345 200" fill="none" xmlns="http://www.w3.org/2000/svg">
<path d="M0 13.159V20.9723H3.18873H6.37746V45.8512V70.7302H3.18873H0V78.749V86.7678H19.5575H39.1151L39.0301 78.8312L38.9025 70.9358L35.2036 70.8124L31.4621 70.689V62.1356V53.5822L39.8804 53.3355C49.7867 53.0476 53.9533 52.2663 59.3104 49.6756C64.9226 46.9615 68.749 43.1783 70.8749 38.2025C71.8952 35.7763 72.0228 35.0772 72.0228 29.8135C72.0228 25.5368 71.8527 23.3574 71.2575 21.3835C68.8766 13.0357 61.8189 7.68979 50.8071 5.96266C47.7459 5.46919 42.1763 5.34583 23.5116 5.34583H0V13.159ZM41.6661 21.3424C45.5351 22.4527 48.0435 26.1125 48.0435 30.7182C48.0435 37.1333 43.8344 40.2997 35.2036 40.2997H31.4621V30.3481V20.4377L35.8413 20.6844C38.2223 20.8489 40.8583 21.1368 41.6661 21.3424Z" fill="url(#paint0_linear_304_2)"/>
<path d="M205.779 32.8977V38.2436H207.693H209.606V57.9823V77.721H207.693H205.779V83.2725V88.824H218.322H230.864V83.2725V77.721H228.313H225.762V52.6364V27.5519H215.771H205.779V32.8977Z" fill="url(#paint1_linear_304_2)"/>
<path d="M71.3426 46.057C69.3018 46.4682 66.6233 47.3318 65.3903 47.9486C61.9465 49.758 58.4601 53.2945 56.7595 56.831C54.8462 60.6965 54.251 63.8218 54.5486 68.6742C55.1013 78.4202 60.671 85.4932 69.9396 88.2484C73.6385 89.3176 81.8867 89.2353 86.606 88.0839C91.5379 86.8503 98.6381 83.1493 98.6381 81.7922C98.6381 81.381 95.5344 77.8034 92.2607 74.308C91.5804 73.5678 91.4529 73.6089 89.4971 74.8014C86.606 76.5697 83.5873 77.4333 80.1435 77.4744C76.232 77.5155 73.766 76.2818 72.363 73.6089L71.4276 71.7584L84.5227 71.635L97.6603 71.5528L98.1279 69.949C98.4256 69.0855 98.6381 66.7415 98.6381 64.7265C98.6381 54.5282 92.8559 47.7841 82.5244 45.8925C78.1027 45.0701 75.9769 45.1112 71.3426 46.057ZM80.6112 57.5712C82.3543 58.3937 82.9496 59.2573 83.5873 61.7657L83.8424 62.9171H77.8051H71.7678L72.0229 61.6012C72.4055 59.7096 73.3409 58.5171 75.1691 57.6124C77.2099 56.5432 78.4003 56.5432 80.6112 57.5712Z" fill="url(#paint2_linear_304_2)"/>
<path d="M178.909 46.0159C177.591 46.4271 175.848 47.1673 175.04 47.6608C173.51 48.5655 173.084 48.4421 172.489 46.7561C172.234 46.1393 171.341 46.057 162.2 46.057H152.166L152.294 51.6908L152.421 57.3656L154.25 57.489L156.035 57.6124V83.1081V108.563H154.122H152.209V114.114V119.666H165.176H178.144V114.114V108.563H175.805H173.467V97.0486C173.467 90.7157 173.552 85.5343 173.637 85.5343C173.722 85.5343 174.913 86.0278 176.273 86.6446C178.569 87.6727 179.207 87.7961 183.884 87.7961C188.858 87.7961 189.071 87.7549 192.217 86.3157C197.616 83.8072 201.188 79.4071 202.803 73.2388C203.399 70.9771 203.441 63.2872 202.846 60.7788C201.74 56.132 198.892 51.4029 195.916 49.2234C191.026 45.6869 184.181 44.4121 178.909 46.0159ZM181.715 58.5993C183.841 60.4909 184.734 63.0816 184.691 67.4406C184.691 70.8948 184.564 71.5939 183.543 73.4855C182.353 75.665 180.737 76.8987 178.952 76.8987C177.591 76.8987 174.913 74.0612 174.275 71.964C173.467 69.2911 173.595 63.0816 174.445 61.2311C176.018 57.818 179.462 56.5843 181.715 58.5993Z" fill="url(#paint3_linear_304_2)"/>
<path d="M117.473 46.2625C107.396 48.4009 100.339 56.9132 100.339 67.0292C100.339 78.0911 107.056 85.8632 118.663 88.2072C127.167 89.9343 136.223 87.5081 141.452 82.1211C145.449 77.9678 147.107 73.6499 147.107 67.4405C147.107 54.3225 137.626 45.5634 123.51 45.6868C121.639 45.6868 118.918 45.9747 117.473 46.2625ZM126.486 58.1057C128.57 60.1207 129.377 63.246 129.165 68.4274C128.995 72.8686 128.442 74.4312 126.359 76.5696C124.275 78.7491 121.384 77.6388 119.556 74.02C118.536 71.9639 118.408 71.306 118.408 67.2349C118.408 63.3282 118.536 62.4236 119.429 60.5319C121.299 56.5431 123.935 55.6384 126.486 58.1057Z" fill="url(#paint4_linear_304_2)"/>
<path d="M253.015 47.4964C246.808 48.6067 240.983 52.431 238.262 57.119C236.179 60.7377 235.371 63.9453 235.413 68.6743C235.456 75.8296 237.539 80.9288 242.089 84.9999C248.083 90.3458 256.161 91.9495 266.663 89.8523C268.449 89.5233 270.83 88.8242 271.978 88.3308C274.103 87.4672 279.758 84.0129 279.758 83.6017C279.758 83.3138 274.146 76.8988 273.041 75.9118C272.19 75.1716 272.105 75.2128 270.702 76.2408C267.513 78.5848 261.391 79.8185 257.862 78.7904C255.481 78.0913 253.185 76.1175 252.76 74.3081L252.463 73.1978H265.473H278.483L278.993 72.0464C279.801 70.1959 279.631 62.6705 278.738 60.0387C277.165 55.433 274.486 52.1432 270.575 49.9226C266.238 47.4553 258.797 46.4272 253.015 47.4964ZM262.241 59.463C263.304 60.162 264.452 62.3415 264.452 63.7397C264.452 64.521 264.197 64.5621 258.457 64.5621C253.143 64.5621 252.505 64.4799 252.718 63.9042C252.845 63.5341 252.973 62.9995 252.973 62.7116C252.973 61.848 255.141 59.5863 256.587 58.9695C258.075 58.3115 260.796 58.5583 262.241 59.463Z" fill="url(#paint5_linear_304_2)"/>
<path d="M193.45 91.2503C187.88 93.0186 184.096 97.7065 184.096 102.806C184.096 107.206 187.2 111.688 191.664 113.744C193.62 114.649 194.683 114.854 197.319 114.854C205.567 114.854 210.456 110.496 210.456 103.217C210.456 99.5981 209.649 97.5832 207.225 94.9925C204.802 92.4018 202.038 91.2092 197.914 91.0447C196.043 90.9625 194.045 91.0447 193.45 91.2503Z" fill="url(#paint6_linear_304_2)"/>
<path d="M107.992 104.451V112.264H111.18H114.369V137.143V162.022H111.18H107.992V170.04V178.059H141.58H175.168V162.638V147.218H164.964H154.76V154.62V162.022H147.319H139.879V137.143V112.264H143.068H146.256V104.451V96.6373H127.124H107.992V104.451Z" fill="url(#paint7_linear_304_2)"/>
<path d="M240.43 100.996C232.31 102.394 226.23 107.494 224.274 114.525C223.806 116.129 223.509 119.542 223.339 124.271L223.084 131.591H220.83H218.534V139.199V146.806H220.873H223.211V160.377V173.947H220.873H218.534V181.76V189.573H236.604H254.673V181.76V173.947H251.059H247.445V160.377V146.806H252.973H258.5V139.199V131.591H252.973H247.445L247.488 125.916C247.488 119.707 247.913 117.897 249.656 116.664C250.719 115.924 251.059 115.882 253.483 116.294C254.971 116.54 256.587 116.869 257.054 116.993C257.862 117.24 258.287 116.705 260.626 112.223C262.071 109.467 263.644 106.63 264.069 105.931C264.495 105.232 264.877 104.368 264.877 103.998C264.877 102.806 262.156 102.024 254.418 100.955C248.891 100.215 244.937 100.215 240.43 100.996Z" fill="url(#paint8_linear_304_2)"/>
<path d="M57.8648 103.052C55.3564 105.108 55.3989 108.933 57.9499 110.783C58.8852 111.441 59.7781 111.647 61.7338 111.647C64.0723 111.606 64.4124 111.482 65.5178 110.29C66.5382 109.179 66.7508 108.604 66.7508 106.877C66.7508 105.026 66.5807 104.615 65.3052 103.381C64.0297 102.147 63.6046 101.983 61.5213 101.983C59.608 101.983 58.9278 102.189 57.8648 103.052Z" fill="url(#paint9_linear_304_2)"/>
<path d="M85.2453 113.168C84.7777 113.415 83.8848 114.073 83.2471 114.649L82.0991 115.677L81.5889 114.567L81.0787 113.497H75.5941H70.1095L70.237 116.664C70.3646 119.625 70.4496 119.871 71.3425 119.995C72.2353 120.118 72.2778 120.241 72.2778 125.258V130.357H71.2149C70.152 130.357 70.152 130.399 70.152 133.647V136.937H77.805H85.4579V133.647V130.357H83.7148H81.9716L82.1416 125.998C82.2692 122.01 82.3967 121.557 83.2896 120.858C84.5226 119.871 85.543 119.871 86.4358 120.817C87.0735 121.475 87.1586 122.709 87.1586 129.247V136.937H93.536H99.9135V133.647C99.9135 130.481 99.871 130.357 98.8931 130.357C97.9152 130.357 97.9152 130.316 97.7027 124.436C97.5326 119.419 97.3625 118.268 96.5547 116.623C95.1517 113.867 92.8983 112.675 89.0293 112.675C87.4137 112.675 85.713 112.922 85.2453 113.168Z" fill="url(#paint10_linear_304_2)"/>
<path d="M54.421 116.787C54.421 120.036 54.421 120.077 55.4839 120.077H56.5468V125.217V130.357H55.4839C54.421 130.357 54.421 130.399 54.421 133.647V136.937H61.4362H68.4515V133.647C68.4515 130.399 68.4515 130.357 67.3885 130.357H66.3256V121.927V113.497H60.3733H54.421V116.787Z" fill="url(#paint11_linear_304_2)"/>
<path d="M289.324 118.473C279.333 120.077 270.872 126.04 267.003 134.264C264.41 139.692 264.24 140.679 264.24 148.657C264.24 155.195 264.367 156.388 265.217 158.978C269.214 171.274 279.205 178.758 293.193 179.91C297.36 180.239 305.268 179.581 309.987 178.429C311.943 177.977 315.302 176.784 317.428 175.797C321.552 173.865 326.526 170.493 326.526 169.67C326.526 169.382 324.953 167.367 323.04 165.27C321.084 163.132 319.043 160.829 318.448 160.13C316.705 158.156 316.492 158.156 313.729 159.924C310.37 162.104 306.416 163.296 301.611 163.543C294.171 163.954 289.877 161.569 288.091 155.977L287.794 155.031L306.628 154.949L325.463 154.825L325.931 152.769C326.654 149.767 326.654 141.625 325.888 138.171C323.635 127.767 315.047 120.324 303.142 118.473C299.953 117.98 292.428 117.98 289.324 118.473ZM300.846 134.84C303.185 135.868 304.205 137.019 304.843 139.322C305.14 140.391 305.438 141.584 305.565 141.954C305.736 142.653 305.14 142.694 297.02 142.694C292.215 142.694 288.261 142.53 288.261 142.365C288.261 142.159 288.559 141.09 288.899 139.98C290.345 135.21 296.084 132.743 300.846 134.84Z" fill="url(#paint12_linear_304_2)"/>
<path d="M180.695 127.479V135.292H183.246H185.797V148.863V162.433H183.246H180.695V170.246V178.059H197.701H214.708V170.246V162.433H211.732H208.756V141.049V119.666H194.725H180.695V127.479Z" fill="url(#paint13_linear_304_2)"/>
<path d="M43.962 144.709C43.1967 145.162 42.4739 145.696 42.3464 145.943C41.8362 146.683 41.3685 146.436 41.0709 145.367C40.8158 144.339 40.7732 144.339 35.9264 144.339H31.037V147.629C31.037 150.877 31.037 150.919 32.0999 150.919H33.1628V156.059V161.199H32.0999C31.037 161.199 31.037 161.24 31.037 164.695V168.19H38.4774H45.9177V164.695V161.199H44.4297H42.9416V157.169C42.9416 154.99 43.0691 152.769 43.1967 152.276C43.5368 151.042 44.9824 150.631 45.8752 151.494C46.4279 152.07 46.598 153.427 46.683 160.171L46.8531 168.19H53.188H59.523V164.695V161.199H57.9924H56.4618L56.6319 156.717C56.7594 152.07 57.1846 150.919 58.7152 150.919C60.1182 150.919 60.3733 152.276 60.3733 160.336V168.19H66.7508H73.1282V164.695C73.1282 161.24 73.1282 161.199 72.0653 161.199C71.0024 161.199 71.0024 161.158 71.0024 157.786C70.9599 152.152 70.3647 148.945 69.0041 147.053C67.1759 144.545 65.5178 143.846 61.4362 144.01C58.29 144.133 57.8648 144.257 56.2492 145.49C55.2713 146.231 54.421 146.642 54.336 146.436C54.2935 146.231 53.4431 145.614 52.5503 144.997C50.4245 143.599 46.0453 143.475 43.962 144.709Z" fill="url(#paint14_linear_304_2)"/>
<path d="M73.1283 147.629C73.1283 150.754 73.1708 150.919 74.1062 150.919C74.914 150.96 75.7643 152.235 79.6333 159.39L84.1826 167.82L83.3748 169.629C82.3544 171.85 81.1639 172.302 79.4632 171.11C78.8255 170.616 78.1027 170.246 77.9326 170.246C77.7626 170.246 76.7847 171.562 75.7643 173.166C74.0211 175.921 73.9786 176.127 74.7014 176.661C78.1027 179.252 84.8628 178.964 88.1366 176.085C89.157 175.222 90.9852 171.726 92.6858 167.491C93.4086 165.723 94.1739 163.913 94.3865 163.461C94.6416 163.009 95.9171 159.966 97.3201 156.676C99.5735 151.33 99.9561 150.713 100.934 150.59C101.997 150.466 102.039 150.384 102.039 147.382V144.339H95.662H89.2845V147.629C89.2845 150.836 89.327 150.919 90.3049 150.919H91.3678L90.2199 153.592C89.5821 155.072 88.9444 156.265 88.8168 156.265C88.6043 156.265 87.9665 154.99 86.4359 151.412C86.3084 151.124 86.5635 150.919 87.1162 150.919C87.9665 150.919 88.009 150.713 88.009 147.629V144.339H80.5687H73.1283V147.629Z" fill="url(#paint15_linear_304_2)"/>
<defs>
<linearGradient id="paint0_linear_304_2" x1="36.0114" y1="86.7678" x2="36.0114" y2="5.34583" gradientUnits="userSpaceOnUse">
<stop offset="0.338542" stop-color="#3B39C3"/>
<stop offset="1" stop-color="#218BDC"/>
</linearGradient>
<linearGradient id="paint1_linear_304_2" x1="218.322" y1="88.824" x2="218.322" y2="27.5519" gradientUnits="userSpaceOnUse">
<stop offset="0.338542" stop-color="#3B39C3"/>
<stop offset="1" stop-color="#218BDC"/>
</linearGradient>
<linearGradient id="paint2_linear_304_2" x1="76.5571" y1="89.0015" x2="76.5571" y2="45.3094" gradientUnits="userSpaceOnUse">
<stop offset="0.338542" stop-color="#3B39C3"/>
<stop offset="1" stop-color="#218BDC"/>
</linearGradient>
<linearGradient id="paint3_linear_304_2" x1="177.719" y1="119.666" x2="177.719" y2="45.3318" gradientUnits="userSpaceOnUse">
<stop offset="0.338542" stop-color="#3B39C3"/>
<stop offset="1" stop-color="#218BDC"/>
</linearGradient>
<linearGradient id="paint4_linear_304_2" x1="123.723" y1="88.7571" x2="123.723" y2="45.6855" gradientUnits="userSpaceOnUse">
<stop offset="0.338542" stop-color="#3B39C3"/>
<stop offset="1" stop-color="#218BDC"/>
</linearGradient>
<linearGradient id="paint5_linear_304_2" x1="257.585" y1="90.7427" x2="257.585" y2="47.076" gradientUnits="userSpaceOnUse">
<stop offset="0.338542" stop-color="#3B39C3"/>
<stop offset="1" stop-color="#218BDC"/>
</linearGradient>
<linearGradient id="paint6_linear_304_2" x1="197.276" y1="114.854" x2="197.276" y2="91.0132" gradientUnits="userSpaceOnUse">
<stop offset="0.338542" stop-color="#3B39C3"/>
<stop offset="1" stop-color="#218BDC"/>
</linearGradient>
<linearGradient id="paint7_linear_304_2" x1="141.58" y1="178.059" x2="141.58" y2="96.6373" gradientUnits="userSpaceOnUse">
<stop offset="0.338542" stop-color="#3B39C3"/>
<stop offset="1" stop-color="#218BDC"/>
</linearGradient>
<linearGradient id="paint8_linear_304_2" x1="241.706" y1="189.573" x2="241.706" y2="100.405" gradientUnits="userSpaceOnUse">
<stop offset="0.338542" stop-color="#3B39C3"/>
<stop offset="1" stop-color="#218BDC"/>
</linearGradient>
<linearGradient id="paint9_linear_304_2" x1="61.3803" y1="111.647" x2="61.3803" y2="101.983" gradientUnits="userSpaceOnUse">
<stop offset="0.338542" stop-color="#3B39C3"/>
<stop offset="1" stop-color="#218BDC"/>
</linearGradient>
<linearGradient id="paint10_linear_304_2" x1="85.0115" y1="136.937" x2="85.0115" y2="112.675" gradientUnits="userSpaceOnUse">
<stop offset="0.338542" stop-color="#3B39C3"/>
<stop offset="1" stop-color="#218BDC"/>
</linearGradient>
<linearGradient id="paint11_linear_304_2" x1="61.4362" y1="136.937" x2="61.4362" y2="113.497" gradientUnits="userSpaceOnUse">
<stop offset="0.338542" stop-color="#3B39C3"/>
<stop offset="1" stop-color="#218BDC"/>
</linearGradient>
<linearGradient id="paint12_linear_304_2" x1="295.383" y1="179.994" x2="295.383" y2="118.103" gradientUnits="userSpaceOnUse">
<stop offset="0.338542" stop-color="#3B39C3"/>
<stop offset="1" stop-color="#218BDC"/>
</linearGradient>
<linearGradient id="paint13_linear_304_2" x1="197.701" y1="178.059" x2="197.701" y2="119.666" gradientUnits="userSpaceOnUse">
<stop offset="0.338542" stop-color="#3B39C3"/>
<stop offset="1" stop-color="#218BDC"/>
</linearGradient>
<linearGradient id="paint14_linear_304_2" x1="52.0826" y1="168.19" x2="52.0826" y2="143.86" gradientUnits="userSpaceOnUse">
<stop offset="0.338542" stop-color="#3B39C3"/>
<stop offset="1" stop-color="#218BDC"/>
</linearGradient>
<linearGradient id="paint15_linear_304_2" x1="87.5839" y1="178.437" x2="87.5839" y2="144.339" gradientUnits="userSpaceOnUse">
<stop offset="0.338542" stop-color="#3B39C3"/>
<stop offset="1" stop-color="#218BDC"/>
</linearGradient>
</defs>
</svg>
